<svg xmlns="http://www.w3.org/2000/svg" width="152" height="30" viewBox="0 0 152 30">
    <defs>
        <filter id="nmw5qgd6ra">
            <feColorMatrix in="SourceGraphic" values="0 0 0 0 1.000000 0 0 0 0 1.000000 0 0 0 0 1.000000 0 0 0 1.000000 0"/>
        </filter>
    </defs>
    <g fill="none" fill-rule="evenodd" opacity=".5">
        <g filter="url(#nmw5qgd6ra)" transform="translate(-50 -694)">
            <g>
                <path fill="#007A5A" fill-rule="nonzero" d="M0 15.4V.147h3.813c.635 0 1.18.08 1.645.237.45.146.858.4 1.185.742.317.345.548.759.675 1.21.14.459.203.987.203 1.582v.696c.004.39-.03.78-.102 1.165-.063.342-.18.673-.346.979-.127.23-.29.44-.481.62-.053.049-.107.095-.164.14.09.062.176.13.258.203.223.198.413.43.563.686.189.33.325.686.402 1.058.084.406.125.82.121 1.235v1.243c0 .62-.08 1.18-.244 1.67-.15.473-.407.906-.75 1.265-.348.352-.773.617-1.241.774-.474.166-1.02.251-1.641.251H0V15.4zM2.655 2.655v3.749h.758c.243.005.485-.018.722-.07.155-.032.3-.1.421-.201.113-.11.194-.247.236-.398.063-.201.095-.46.095-.784v-.864c.005-.242-.019-.484-.07-.72-.03-.153-.092-.297-.185-.422-.079-.096-.183-.169-.3-.21-.181-.059-.37-.086-.56-.08H2.654zm0 6.257V13.4h1.242c.203.005.405-.024.598-.086.133-.044.252-.121.346-.225.104-.128.178-.279.216-.44.06-.243.088-.493.083-.744v-1.308c0-.356-.033-.65-.099-.879-.044-.178-.132-.342-.256-.477-.124-.118-.276-.201-.442-.243-.249-.063-.505-.092-.762-.086h-.927.001zM13.156 15.4V.147h2.655v15.757h-2.655V15.4zm10.933-2h4.773v2.504H21.15v-2.082l4.795-11.167h-4.563V.147h7.52v2.084L24.09 13.4zm15.423 2.152L36.73 6.754v9.15h-2.487V.147h2.96l2.538 7.93V.146h2.466v15.757h-2.583l-.112-.352zm8.266-.152V.147h2.656v15.757h-2.656V15.4zm13.474.152L58.47 6.754v9.15h-2.487V.147h2.96l2.538 7.93V.146h2.466v15.757h-2.583l-.112-.352zM70.38 1.128c.336-.377.756-.668 1.226-.85.464-.182.995-.278 1.599-.278s1.144.096 1.61.278c.47.18.893.47 1.23.845.343.391.599.85.75 1.348.164.52.245 1.105.245 1.742v1.768H74.47V4.127c.004-.263-.025-.525-.088-.78-.042-.179-.121-.347-.232-.493-.092-.113-.212-.201-.348-.255-.354-.125-.74-.125-1.095 0-.137.056-.258.145-.35.26-.113.146-.194.315-.238.495-.063.252-.093.512-.09.773v7.794c-.003.26.027.52.09.773.044.18.125.348.237.495.093.115.214.204.351.26.174.066.359.098.544.093.188.005.375-.027.551-.093.136-.055.256-.143.349-.256.11-.146.19-.314.231-.492.063-.256.093-.518.088-.781V9.48h-1.516V6.995h4.088v4.846c0 .637-.08 1.223-.245 1.742-.15.498-.407.958-.75 1.348-.338.375-.76.665-1.232.846-.463.181-1 .278-1.609.278-.608 0-1.136-.097-1.6-.278-.47-.182-.89-.473-1.226-.848-.34-.39-.592-.85-.742-1.345-.164-.518-.244-1.104-.244-1.74v-7.63c0-.636.08-1.22.244-1.74.15-.495.402-.953.742-1.344v-.001zM90.977.147h2.13v11.778c-.005.263.025.525.088.78.042.179.12.346.232.492.092.114.212.202.348.257.176.065.363.097.55.092.184.005.366-.027.538-.092.134-.055.252-.143.343-.256.11-.147.19-.314.232-.493.062-.255.092-.517.087-.78V.147h2.55V11.84c.008.592-.074 1.183-.243 1.75-.148.499-.401.96-.742 1.353-.335.377-.754.669-1.224.852-.464.182-.996.278-1.603.278-.608 0-1.132-.098-1.594-.282-.468-.183-.886-.475-1.219-.852-.338-.393-.59-.854-.738-1.352-.168-.567-.25-1.157-.242-1.749V.148h.507zm17.348 15.757h-2.128v-5.711L102.887.147h2.776l1.928 6.089L109.54.147h2.625l-3.332 10.04v5.717h-.507zm15.58-2.002v2.002h-6.87V.147h2.656V13.4h4.213v.506-.004zm11.1 1.59l-.492-2.555h-2.894l-.567 2.967h-2.545l.634-3.305c.789-4.113 1.58-8.225 2.33-12.18l.052-.273h3.215l1.5 7.815c.458 2.392.933 4.88 1.44 7.546l.076.397h-2.67l-.079-.412zm-.919-4.982l-1.044-5.34-1.018 5.34h2.062zm8.735 4.888V.148h3.794c.641 0 1.196.085 1.67.252.46.155.875.42 1.21.773.323.354.561.779.695 1.24.145.473.214 1.01.214 1.61v1.202c.004.41-.038.819-.123 1.22-.076.355-.208.697-.39 1.011-.14.237-.313.451-.516.636-.061.055-.124.108-.189.157.079.058.154.12.226.186.208.194.385.42.525.668.177.321.304.668.375 1.028.079.395.117.798.114 1.2v2.301c0 .174 0 .335.006.461.005.144.015.283.033.415.014.119.038.236.071.352.03.105.071.206.123.303l.403.745h-2.837l-.135-.3c-.056-.122-.104-.247-.145-.375-.044-.141-.078-.286-.101-.432-.028-.172-.046-.345-.056-.52-.012-.2-.018-.42-.018-.67v-2.318c0-.356-.038-.644-.113-.872-.052-.182-.151-.346-.286-.478-.137-.121-.3-.208-.478-.252-.25-.062-.506-.09-.763-.085h-.653v6.298h-2.655v-.506zm2.655-12.744v4.444h.716c.25.005.498-.02.742-.072.17-.035.328-.11.464-.217.125-.112.217-.256.266-.417.071-.208.109-.475.109-.812V4.173c.004-.25-.022-.498-.077-.742-.035-.164-.106-.319-.207-.453-.087-.107-.201-.188-.33-.235-.189-.065-.388-.095-.587-.09h-1.095zM88.8 21.372L89.589 26.211 90.378 21.372 92.482 21.372 92.482 29.873 91.015 29.873 91.015 26.054 90.383 29.873 89.589 29.873 88.796 29.873 88.163 26.054 88.163 29.873 86.696 29.873 86.696 21.372zM38.937 29.873h-2.201v-8.5h2.2c.686 0 1.203.193 1.554.563.351.37.532.923.532 1.625v4.123c0 .704-.177 1.252-.532 1.626-.355.374-.868.564-1.553.564zm.325-6.869c-.075-.083-.195-.118-.35-.118h-.546v5.474h.548c.154 0 .274-.035.35-.12.082-.092.128-.251.128-.497v-4.24c0-.244-.047-.405-.13-.499zm8.601-.118h-2.04v1.92h1.758v1.515h-1.755v2.04h2.211v1.514h-3.841v-8.503h3.841v1.514h-.174zm3.163-1.514h1.443L53.297 27l.827-5.627h1.53c-.435 2.834-.872 5.668-1.31 8.501h-2.21l-1.312-8.5h.204zm11.22 1.514h-2.04v1.92h1.76v1.515h-1.76v2.04h2.213v1.514h-3.843v-8.503h3.843v1.514h-.174.002zm6.89 6.988h-3.564v-8.502h1.63v6.988h2.108v1.514h-.174zm4.752-6.955c-.086.095-.135.258-.135.503v4.402c0 .246.047.408.134.504.079.088.202.126.356.126.154 0 .278-.038.355-.125.086-.096.134-.259.134-.505v-4.402c0-.245-.046-.408-.134-.504-.078-.087-.2-.125-.355-.125-.155 0-.275.038-.354.125h-.001zm-1.211 6.462c-.364-.383-.554-.938-.554-1.638v-4.24c0-.7.19-1.255.554-1.638.363-.382.89-.586 1.566-.586s1.205.204 1.566.586c.36.381.553.937.553 1.638v4.24c0 .7-.19 1.255-.553 1.638-.363.382-.89.585-1.566.585-.677 0-1.206-.204-1.566-.586v.001zm7.047-8.008h1.888c.684 0 1.201.193 1.552.564.351.37.53.922.53 1.624v1.06c0 .704-.176 1.252-.531 1.626-.356.374-.868.564-1.553.564h-.432v3.063h-1.63v-8.502h.176zm2.226 1.623c-.069-.077-.183-.108-.337-.108h-.431V25.3h.431c.154 0 .268-.03.337-.107.077-.086.117-.241.117-.486V23.48c-.001-.245-.042-.4-.118-.487l.001.003zm17.434-.108h-2.04v1.919h1.759v1.514h-1.759v2.04h2.213v1.514h-3.843v-8.503h3.843v1.514h-.174l.001.002zm7.554 6.988h-1.451l-1.287-4.765v4.762h-1.502v-8.5h1.915l1.008 3.737v-3.738h1.49v8.501l-.173.003zm4.42-6.988h-1.34v-1.516h4.31v1.514h-1.34v6.987h-1.63v-6.987.002z" transform="translate(50 694)"/>
            </g>
        </g>
    </g>
</svg>
