<svg xmlns="http://www.w3.org/2000/svg" width="30" height="30" viewBox="0 0 30 30">
    <g fill="none" fill-rule="evenodd">
        <g fill="#FFF" fill-rule="nonzero">
            <g>
                <g>
                    <g>
                        <path d="M15 0C6.729 0 0 6.729 0 15s6.729 15 15 15 15-6.729 15-15S23.271 0 15 0zm3.384 20.366c.488.489.488 1.279 0 1.768-.244.243-.564.366-.884.366-.32 0-.64-.123-.884-.366l-6.25-6.25c-.489-.489-.489-1.279 0-1.768l6.25-6.25c.489-.488 1.279-.488 1.768 0 .488.489.488 1.279 0 1.768L13.017 15l5.367 5.366z" transform="translate(-54 -43) translate(0 39) translate(50) translate(4 4)"/>
                    </g>
                </g>
            </g>
        </g>
    </g>
</svg>
