<svg xmlns="http://www.w3.org/2000/svg" width="30" height="30" viewBox="0 0 30 30">
    <g fill="none" fill-rule="evenodd">
        <g fill="#FFF" fill-rule="nonzero">
            <g>
                <g>
                    <g>
                        <path d="M25.605 4.392c-5.859-5.857-15.356-5.856-21.213.003-5.857 5.859-5.856 15.356.003 21.213 5.859 5.857 15.356 5.856 21.213-.003 2.813-2.814 4.393-6.63 4.392-10.608 0-3.978-1.582-7.793-4.395-10.605zm-2.888 16.503l-.002.002v-.005l-.76.755c-.983.995-2.414 1.405-3.775 1.08-1.37-.367-2.674-.951-3.86-1.73-1.102-.704-2.123-1.528-3.045-2.455-.848-.842-1.61-1.767-2.275-2.76-.727-1.07-1.303-2.233-1.71-3.46-.467-1.441-.08-3.023 1-4.085l.89-.89c.247-.249.65-.25.898-.002l.002.002 2.81 2.81c.248.247.25.65.002.898l-.002.002-1.65 1.65c-.474.468-.533 1.212-.14 1.75.597.819 1.257 1.59 1.975 2.305.8.804 1.67 1.535 2.6 2.185.537.375 1.265.311 1.73-.15L19 17.177c.247-.249.65-.25.898-.002l.002.002 2.815 2.82c.249.247.25.65.002.898z" transform="translate(-1356 -694) translate(0 39) translate(1238 651) translate(118 4)"/>
                    </g>
                </g>
            </g>
        </g>
    </g>
</svg>
