<svg width="16" height="16" viewBox="0 0 16 16" fill="none" xmlns="http://www.w3.org/2000/svg">
<g id="sun copy">
<path id="Path" d="M7.85418 3.91968C5.68479 3.91968 3.91992 5.6849 3.91992 7.85429C3.91992 10.0237 5.68479 11.7889 7.85418 11.7889C10.0232 11.7889 11.7884 10.024 11.7884 7.85429C11.7884 5.68455 10.0232 3.91968 7.85418 3.91968Z" fill="#FFE600"/>
<g id="Group">
<path id="Path_2" d="M7.85359 2.76313C7.42959 2.76313 7.08594 2.41948 7.08594 1.99583V0.767652C7.08594 0.343652 7.42959 0 7.85359 0C8.27759 0 8.62124 0.343652 8.62124 0.767652V1.99583C8.62124 2.41948 8.27724 2.76313 7.85359 2.76313Z" fill="#FFE600"/>
<path id="Path_3" d="M7.85359 12.9443C7.42959 12.9443 7.08594 13.288 7.08594 13.712V14.9398C7.08594 15.3642 7.42959 15.7078 7.85359 15.7078C8.27759 15.7078 8.62124 15.3642 8.62124 14.9398V13.712C8.62124 13.288 8.27724 12.9443 7.85359 12.9443Z" fill="#FFE600"/>
<path id="Path_4" d="M11.4531 4.25438C11.1536 3.95455 11.1536 3.46864 11.4531 3.16881L12.3216 2.30029C12.6211 2.00081 13.1074 2.00081 13.4072 2.30029C13.707 2.60012 13.707 3.08638 13.4072 3.38586L12.5387 4.25438C12.2392 4.55421 11.7533 4.55421 11.4531 4.25438Z" fill="#FFE600"/>
<path id="Path_5" d="M4.255 11.4539C3.95517 11.1537 3.46926 11.1537 3.16943 11.4539L2.30091 12.3221C2.00143 12.6215 2.00108 13.1082 2.30091 13.4076C2.60074 13.7071 3.087 13.7071 3.38648 13.4076L4.255 12.5388C4.55482 12.2393 4.55482 11.753 4.255 11.4539Z" fill="#FFE600"/>
<path id="Path_6" d="M12.9453 7.85383C12.9453 7.42983 13.289 7.08618 13.713 7.08618H14.9411C15.3651 7.08618 15.7088 7.42983 15.7088 7.85383C15.7088 8.27783 15.3651 8.62114 14.9411 8.62114H13.713C13.289 8.62114 12.9453 8.27783 12.9453 7.85383Z" fill="#FFE600"/>
<path id="Path_7" d="M2.76313 7.85383C2.76313 7.42983 2.41948 7.08618 1.99548 7.08618H0.767652C0.343652 7.08618 0 7.42983 0 7.85383C0 8.27783 0.343652 8.62114 0.767652 8.62114H1.99583C2.41948 8.62114 2.76313 8.27783 2.76313 7.85383Z" fill="#FFE600"/>
<path id="Path_8" d="M11.4534 11.4539C11.7532 11.1544 12.2395 11.1544 12.539 11.4539L13.4075 12.3224C13.7073 12.6215 13.7073 13.1081 13.4075 13.4076C13.1076 13.7071 12.6217 13.7071 12.3219 13.4076L11.4534 12.5391C11.1536 12.2392 11.1536 11.7533 11.4534 11.4539Z" fill="#FFE600"/>
<path id="Path_9" d="M4.25513 4.25429C4.55495 3.95447 4.55495 3.46855 4.25513 3.16873L3.38661 2.30055C3.08678 2.00073 2.60087 2.00073 2.30104 2.30055C2.00122 2.60003 2.00122 3.08629 2.30104 3.38577L3.16956 4.25429C3.46939 4.55447 3.9553 4.55447 4.25513 4.25429Z" fill="#FFE600"/>
</g>
</g>
</svg>
