<svg width="56" height="52" viewBox="0 0 56 52" fill="none" xmlns="http://www.w3.org/2000/svg">
<path fill-rule="evenodd" clip-rule="evenodd" d="M52.306 48.3583H47.0978V35.592H43.4047V48.3583H38.1985V39.5672C38.1985 35.347 41.6819 31.9137 45.9624 31.9137H56V28.272H45.9624C42.4558 28.272 39.3135 29.8344 37.21 32.2895C36.7578 30.6521 36.1635 29.0734 35.4301 27.5696C38.3598 25.0627 42.0577 23.6896 45.9624 23.6896H56V20.0488H45.9624C41.4074 20.0488 37.0805 21.5651 33.5729 24.3516C32.7197 23.0736 31.7631 21.8677 30.7128 20.7483C34.8977 17.4467 40.1986 15.4654 45.9624 15.4654H56V11.8236H45.9624C39.1444 11.8236 32.8869 14.2268 28.0111 18.2183C23.1344 14.2258 16.8749 11.8198 10.055 11.8198H3.69307V3.64078H52.306V11.8198H56V3.64078V0H52.306H3.69307H0V3.64078V11.8198V15.4615H10.055C15.8207 15.4615 21.1236 17.4438 25.3094 20.7483C24.2581 21.8677 23.3015 23.0717 22.4483 24.3506C18.9408 21.5612 14.6119 20.0449 10.055 20.0449H0V23.6857H10.055C13.9616 23.6857 17.6614 25.0598 20.5911 27.5686C19.8568 29.0705 19.2616 30.6511 18.8094 32.2875C16.7058 29.8315 13.5625 28.2682 10.055 28.2682H0V31.9089H10.055C14.3365 31.9089 17.8199 35.3431 17.8199 39.5633V48.3583H12.6127V35.5882H8.91961V48.3583H3.69307V35.6189H0V52H21.513V39.5672C21.513 33.2667 23.9808 27.5254 28.0101 23.2264C32.0385 27.5254 34.5044 33.2647 34.5044 39.5633V52H56V35.6189H52.306V48.3583Z" fill="white"/>
</svg>
